<?xml version="1.0" standalone="no"?>
<!DOCTYPE svg PUBLIC "-//W3C//DTD SVG 20010904//EN"
 "http://www.w3.org/TR/2001/REC-SVG-20010904/DTD/svg10.dtd">
<svg version="1.0" xmlns="http://www.w3.org/2000/svg"
 width="600.000000pt" height="400.000000pt" viewBox="0 0 600.000000 400.000000"
 preserveAspectRatio="xMidYMid meet">
<g transform="translate(0.000000,400.000000) scale(0.100000,-0.100000)"
fill="#000000" stroke="none">
<path d="M5 2000 c0 -1097 1 -1546 2 -997 2 548 2 1446 0 1995 -1 548 -2 99
-2 -998z"/>
<path d="M20 2000 l0 -1990 2990 0 c1987 0 2990 3 2990 10 0 7 -1000 10 -2980
10 l-2980 0 0 1970 0 1970 2980 0 c1980 0 2980 3 2980 10 0 7 -1003 10 -2990
10 l-2990 0 0 -1990z"/>
<path d="M1750 3753 c-70 -11 -150 -107 -150 -177 0 -78 91 -187 157 -189 96
-1 104 2 154 52 27 26 49 56 49 65 0 9 -16 26 -35 38 -42 24 -41 42 3 46 27 3
31 0 35 -25 3 -21 4 -18 5 12 2 71 -65 152 -143 174 -22 6 -42 10 -45 9 -3 0
-16 -3 -30 -5z m93 -24 c20 -5 37 -14 37 -18 0 -15 -90 -18 -102 -4 -6 7 -15
13 -20 13 -6 0 -5 -6 2 -15 6 -8 9 -19 5 -25 -10 -17 -34 -11 -46 12 -22 42
40 61 124 37z m-147 -87 c-14 -14 -16 -13 -25 9 -9 22 -10 21 -10 -14 -1 -21
-9 -50 -18 -65 -10 -15 2 -7 28 20 73 76 209 124 247 86 19 -19 14 -26 -12
-21 -69 14 -203 -64 -242 -139 -19 -37 -33 -27 -44 30 -9 50 9 104 47 144 l28
29 8 -32 c6 -24 4 -36 -7 -47z m252 -14 c19 -19 14 -31 -12 -24 -61 15 -185
-51 -232 -125 -25 -41 -26 -41 -41 -20 -16 24 -15 28 41 89 64 70 207 117 244
80z m-51 -88 c19 -17 39 -28 45 -24 6 4 8 -1 6 -12 -6 -32 -44 -28 -84 9 -22
20 -34 39 -30 45 11 19 26 14 63 -18z m-58 -24 c13 -14 36 -30 52 -37 29 -11
29 -12 12 -31 -37 -41 -110 -57 -169 -38 -41 14 -50 26 -34 45 10 13 18 10 48
-15 54 -44 65 -36 12 9 l-44 38 23 13 c14 7 26 8 30 3 14 -21 79 -63 97 -63
14 0 11 4 -11 16 -47 24 -88 61 -81 73 12 18 41 12 65 -13z"/>
<path d="M2057 3622 c-10 -11 -17 -35 -17 -60 0 -31 -6 -48 -25 -66 -14 -14
-25 -36 -25 -49 0 -13 38 -99 85 -191 97 -189 104 -224 58 -269 -27 -25 -79
-51 -137 -68 l-30 -9 31 33 c29 31 53 68 53 83 0 4 -14 -12 -31 -35 -18 -25
-48 -50 -72 -61 -41 -19 -42 -19 -45 0 -2 10 7 32 19 49 27 37 20 77 -16 91
-15 6 -25 18 -25 28 0 29 -34 66 -74 82 -42 16 -46 37 -13 68 30 28 67 36 113
23 38 -10 97 -58 121 -97 6 -10 12 -14 12 -8 3 40 -112 124 -168 124 -46 0
-96 -30 -117 -72 -9 -18 -29 -49 -44 -68 -40 -53 -53 -94 -48 -153 3 -28 8
-59 12 -67 6 -14 -18 -17 -176 -28 -245 -17 -291 -7 -473 98 -210 122 -253
133 -306 81 -32 -33 -37 -67 -14 -110 16 -31 33 -41 71 -41 14 0 40 -11 58
-25 18 -13 50 -32 72 -41 21 -8 89 -47 150 -85 118 -74 203 -103 334 -115 36
-4 67 -8 69 -10 9 -8 -1 -179 -11 -198 -11 -20 -12 -19 -19 11 -13 62 -50 83
-70 39 -17 -37 -46 -40 -52 -6 -7 30 -33 46 -52 30 -8 -6 -14 -59 -19 -150 -6
-128 -5 -142 13 -179 28 -54 79 -83 159 -90 56 -5 66 -9 68 -26 3 -35 24 -248
28 -295 2 -25 9 -65 14 -90 12 -51 32 -181 32 -209 0 -14 -23 -32 -77 -62
-116 -63 -191 -115 -256 -178 -95 -92 -116 -154 -78 -229 42 -82 169 -166 341
-225 107 -37 290 -87 316 -87 12 0 28 -10 36 -23 14 -19 25 -22 89 -23 41 -1
148 -9 239 -19 195 -19 627 -30 755 -18 117 10 135 8 135 -21 0 -28 -16 -42
-106 -94 -85 -49 -98 -64 -90 -97 15 -59 113 -78 202 -38 27 12 67 25 88 28
23 4 50 18 68 35 27 27 28 32 28 123 0 63 4 98 13 105 10 8 202 50 362 79 17
2 96 21 177 42 142 35 149 36 166 19 13 -13 37 -19 88 -22 38 -1 78 -7 89 -12
11 -5 44 -9 73 -8 40 2 60 8 78 25 26 24 31 58 12 77 -19 19 2 31 67 37 74 8
284 49 375 74 l68 19 -5 -54 c-8 -71 10 -99 68 -107 24 -3 50 -2 57 2 8 5 33
4 56 -1 66 -14 145 2 169 34 33 44 18 73 -53 99 -33 12 -72 33 -86 48 -25 25
-26 28 -19 113 7 83 6 90 -17 121 -33 44 -46 92 -63 227 -11 86 -33 139 -93
224 l-55 79 39 31 c165 130 200 286 93 419 l-30 37 19 28 c11 15 33 56 50 92
37 79 63 110 92 110 57 0 93 96 50 135 -11 10 -20 27 -20 38 0 21 -72 97 -93
97 -7 0 -22 18 -35 40 -25 45 -69 72 -110 68 -25 -3 -27 0 -30 40 -3 37 0 43
21 51 28 11 57 47 57 72 0 35 -34 61 -85 66 -43 5 -56 12 -90 48 -51 55 -99
70 -173 53 -28 -6 -54 -9 -55 -7 -2 2 -76 86 -166 187 -150 168 -165 182 -196
182 -57 0 -91 -60 -64 -113 6 -12 83 -95 172 -184 l161 -162 -12 -39 c-15 -50
-15 -80 0 -136 14 -53 4 -71 -44 -82 -49 -10 -91 -37 -116 -75 -19 -27 -23
-44 -20 -84 3 -27 8 -57 11 -65 6 -13 -17 -11 -155 11 -89 15 -189 30 -222 34
-34 3 -99 10 -146 15 -47 5 -134 14 -195 20 -60 6 -195 17 -300 23 l-190 12
-3 46 c-4 68 -42 101 -122 107 -111 8 -188 -41 -211 -134 -8 -32 -17 -45 -33
-49 -11 -2 -79 -14 -150 -25 -107 -18 -133 -20 -152 -9 -21 11 -27 10 -47 -9
-29 -27 -57 -29 -57 -3 0 10 -7 24 -15 31 -21 17 -55 -13 -55 -49 0 -23 -6
-28 -45 -39 -25 -7 -50 -12 -55 -12 -27 0 47 72 166 160 216 162 216 162 107
406 -47 105 -87 211 -97 257 -39 176 -105 258 -159 199z m94 -78 c10 -22 28
-80 39 -129 13 -56 49 -151 95 -253 46 -98 75 -176 75 -196 0 -41 -22 -70 -92
-122 -29 -22 -87 -66 -130 -98 -42 -31 -98 -85 -124 -119 -26 -34 -65 -78 -85
-97 -58 -54 -81 -116 -77 -205 2 -40 5 -72 8 -70 3 2 10 -8 17 -21 9 -20 8
-26 -5 -33 -18 -9 -152 -26 -289 -37 -82 -7 -82 -7 -95 20 -9 22 -9 42 0 97
15 85 15 136 2 144 -6 4 -10 -11 -10 -36 0 -24 -5 -69 -12 -101 -10 -46 -9
-65 1 -94 7 -19 10 -38 7 -41 -16 -17 -96 -14 -139 5 -70 31 -78 55 -75 217 3
151 21 191 26 58 2 -67 5 -81 17 -76 10 3 15 20 15 48 0 24 4 46 9 49 24 15
29 -91 6 -108 -12 -8 -14 -22 -9 -58 9 -65 24 -60 24 7 0 40 4 57 15 61 11 5
15 24 15 80 0 87 19 102 21 17 1 -32 1 -61 0 -65 -2 -17 17 -6 46 25 29 30 31
38 37 132 3 55 8 109 12 121 5 20 1 21 -78 28 -153 12 -225 36 -350 114 -62
39 -138 81 -168 95 -30 13 -63 34 -74 45 -13 15 -26 20 -46 15 -20 -4 -34 1
-49 16 -27 27 -26 41 1 76 34 44 82 32 244 -60 189 -109 237 -127 343 -128
100 -2 392 11 399 18 2 2 -3 22 -12 45 -21 52 -21 122 0 163 23 44 62 89 68
78 3 -5 21 -16 41 -25 31 -15 35 -21 35 -56 0 -38 2 -40 29 -40 17 0 33 -5 36
-10 10 -17 -5 -49 -26 -55 -20 -7 -25 -38 -13 -82 5 -20 13 -23 51 -23 l44 0
-20 -26 c-31 -39 -30 -177 0 -229 27 -45 32 -41 14 10 -31 86 -11 236 32 251
120 42 196 101 196 153 0 38 -41 136 -111 265 -30 55 -57 118 -60 139 l-5 40
37 -6 c33 -5 37 -4 31 11 -4 9 -10 39 -13 66 -9 85 39 79 79 -10z m1998 -21
c15 -16 82 -89 147 -163 195 -221 175 -204 209 -186 64 34 149 10 181 -50 10
-18 25 -35 34 -36 8 0 20 -2 25 -3 6 -2 24 -3 42 -4 29 -1 63 -22 63 -40 0 -4
-6 -16 -14 -26 -11 -16 -27 -19 -103 -20 -108 0 -121 -8 -121 -72 0 -53 -21
-80 -67 -87 -17 -3 -39 -8 -51 -11 -31 -9 -79 36 -98 92 -20 59 -20 129 -1
167 l16 30 -181 181 c-99 100 -180 189 -180 198 0 21 35 57 55 57 8 0 28 -12
44 -27z m609 -598 c4 -67 19 -86 68 -78 43 7 69 -10 90 -57 10 -22 27 -43 38
-46 47 -15 76 -44 76 -78 0 -25 6 -35 25 -44 48 -22 17 -98 -37 -90 -28 4 -54
-29 -102 -127 -18 -39 -46 -85 -61 -103 l-27 -32 37 -41 c20 -23 43 -56 51
-75 20 -48 18 -130 -6 -178 -24 -51 -103 -132 -153 -157 l-38 -20 -27 33 c-15
18 -53 60 -84 94 -52 54 -58 65 -58 103 0 26 -4 40 -10 36 -5 -3 -10 -22 -10
-42 0 -27 10 -48 42 -87 55 -67 135 -146 147 -146 16 0 118 -140 140 -190 10
-25 29 -108 41 -185 20 -124 26 -144 53 -174 26 -30 28 -39 22 -75 -4 -23 -9
-57 -10 -76 -2 -19 -3 -40 -4 -47 -4 -41 -79 -58 -104 -23 -13 19 -16 19 -152
-15 -148 -37 -357 -75 -410 -75 -40 0 -46 -6 -35 -36 5 -13 6 -24 2 -24 -13 0
-96 55 -111 74 -8 10 -21 14 -33 10 -34 -10 -99 6 -107 28 -6 18 -9 19 -22 5
-9 -8 -21 -39 -27 -69 l-12 -53 -98 -27 c-139 -38 -568 -128 -614 -128 -4 0
-5 -7 -2 -15 4 -10 0 -15 -11 -15 -16 0 -17 -9 -12 -100 7 -119 0 -133 -79
-145 -27 -4 -65 -15 -86 -26 -50 -26 -139 -26 -162 -1 -15 18 -15 20 1 34 10
8 44 30 76 47 97 55 117 76 117 126 0 41 -2 43 -32 48 -18 2 -107 0 -198 -6
-186 -11 -549 3 -782 29 -105 12 -142 13 -152 5 -8 -7 -26 -14 -40 -17 -36 -6
-43 17 -15 55 19 26 21 38 16 93 -3 35 -8 70 -12 79 -5 12 2 18 26 23 36 7 69
32 69 51 0 7 6 18 14 24 10 9 19 7 37 -8 l23 -19 -28 -36 c-26 -34 -81 -156
-70 -156 2 0 -2 -13 -11 -30 -21 -41 -18 -60 5 -32 10 12 28 51 40 87 12 35
32 79 45 97 46 62 50 76 31 97 -9 10 -33 26 -54 35 -21 10 -43 29 -49 44 -46
106 -56 137 -67 218 -10 74 -19 102 -45 143 -18 28 -37 49 -41 46 -5 -3 -6 3
-3 13 2 10 0 34 -6 53 -8 27 -10 29 -10 9 2 -44 -3 -46 -16 -5 -8 22 -14 31
-14 20 -1 -11 17 -56 40 -100 39 -79 68 -121 53 -80 -4 11 -4 17 0 13 4 -3 10
-26 12 -50 3 -23 19 -90 36 -148 43 -147 45 -164 17 -184 -29 -20 -53 -20 -73
0 -20 20 -20 11 0 -28 9 -17 13 -40 10 -54 -4 -14 1 -46 10 -72 12 -34 15 -61
10 -94 -7 -47 -8 -47 -39 -42 -74 14 -289 77 -377 111 -236 91 -331 195 -276
301 17 33 107 122 156 156 50 33 177 108 231 136 l47 24 -15 40 c-8 23 -17 73
-20 112 l-6 71 94 6 c52 3 98 1 103 -4 23 -22 110 8 201 70 l42 29 13 -54 c7
-30 17 -54 21 -54 4 0 30 25 58 56 48 52 51 59 51 107 0 75 -31 117 -118 159
-66 32 -69 35 -75 75 -4 23 -23 84 -43 135 -31 79 -35 102 -32 155 3 51 10 71
41 116 20 29 43 54 50 55 6 0 37 10 67 21 30 11 74 25 98 31 42 11 42 11 42
57 0 35 3 44 11 36 7 -7 9 -28 5 -55 -16 -106 -18 -129 -10 -146 6 -11 10 6
14 53 l5 69 48 15 c31 10 46 19 43 28 -3 7 -1 15 5 19 6 3 13 -3 16 -15 6 -24
6 -24 53 -11 19 5 82 16 140 25 58 8 117 18 132 21 24 5 28 2 34 -23 8 -34 39
-98 68 -138 l21 -30 10 75 c9 70 11 75 35 75 18 0 26 6 28 23 2 12 13 29 25
36 30 19 96 29 110 18 7 -5 75 -13 152 -17 77 -3 208 -13 290 -21 83 -8 204
-19 270 -25 66 -5 216 -26 333 -45 118 -19 227 -34 243 -34 l30 0 -6 -112 c-7
-120 -17 -168 -45 -208 -32 -47 -32 -49 7 -68 21 -11 103 -41 181 -68 103 -34
148 -45 159 -38 13 8 98 205 90 209 -1 1 -32 23 -69 49 -51 35 -68 53 -68 70
0 37 41 88 93 114 45 24 48 24 67 7 10 -9 23 -15 27 -12 5 3 22 33 38 66 28
60 28 61 10 94 -13 24 -16 46 -12 76 3 26 1 41 -6 41 -7 0 -7 4 1 12 7 7 12
19 12 28 -1 9 -6 6 -14 -9 -8 -15 -29 -29 -51 -36 -34 -9 -40 -16 -58 -65 -11
-30 -22 -57 -24 -59 -1 -2 -23 15 -48 38 -25 23 -56 46 -69 53 -24 10 -24 12
-8 34 12 16 27 23 50 24 64 0 108 56 96 120 -6 27 -4 29 32 35 22 3 46 8 54 9
30 7 35 -2 38 -59z m-1862 -46 c53 -14 77 -43 72 -91 -3 -31 -6 -33 -48 -38
-55 -7 -85 -23 -106 -55 -9 -14 -22 -25 -29 -25 -17 0 -45 -44 -45 -70 0 -35
-18 -22 -36 28 -10 26 -27 61 -37 79 -18 31 -18 33 1 75 24 54 49 76 104 93
54 17 69 18 124 4z m1524 -41 c22 -23 39 -46 38 -52 -3 -13 24 -56 35 -56 4 0
30 -18 58 -40 28 -22 58 -40 68 -40 10 0 23 -14 31 -37 8 -21 16 -41 18 -45 2
-5 -7 -8 -21 -8 -27 0 -97 -47 -121 -82 -9 -12 -16 -39 -16 -60 0 -35 5 -42
60 -85 33 -25 60 -49 60 -53 0 -10 -36 -110 -50 -142 -8 -17 -21 -28 -33 -28
-22 0 -217 65 -259 87 -16 7 -28 10 -28 6 0 -4 -5 -2 -12 5 -9 9 -5 23 16 62
24 45 29 67 36 178 9 139 6 152 -40 152 -82 0 -96 147 -20 207 8 7 39 20 69
30 29 10 56 23 58 30 7 19 10 17 53 -29z m320 -154 c11 -36 10 -45 -9 -82 -12
-23 -26 -42 -31 -42 -5 0 -21 23 -35 51 -26 50 -26 51 -9 96 20 52 55 74 65
39 4 -11 12 -39 19 -62z m-2854 -512 c11 -6 37 -82 29 -82 -5 0 53 -167 76
-217 22 -48 24 -73 7 -73 -7 0 -54 -21 -104 -46 -112 -57 -134 -56 -167 14
-12 26 -34 81 -47 122 -14 41 -31 81 -37 88 -7 7 -13 12 -13 10 0 -2 22 -62
49 -133 41 -108 46 -131 34 -138 -8 -5 -20 -4 -28 3 -24 20 -56 121 -65 205
l-9 80 4 -80 c4 -89 6 -103 30 -159 9 -21 14 -40 12 -43 -3 -2 -24 -6 -47 -8
-23 -3 -48 -9 -56 -15 -19 -17 -30 13 -38 105 -4 44 -9 100 -11 125 -3 25 -7
68 -9 97 -2 29 -7 60 -10 70 -10 33 7 41 109 47 105 6 257 25 264 32 6 6 14 5
27 -4z m134 -202 c65 -33 90 -67 90 -123 0 -40 -5 -53 -34 -85 l-35 -37 -10
28 c-6 16 -11 40 -11 55 0 15 -14 60 -30 101 -17 40 -30 75 -30 77 0 9 23 3
60 -16z m-190 -551 c0 -6 -4 -7 -10 -4 -5 3 -10 11 -10 16 0 6 5 7 10 4 6 -3
10 -11 10 -16z m130 -390 c0 -19 -39 -77 -57 -83 -24 -10 -53 3 -53 24 0 10
10 20 23 24 12 3 32 14 42 25 22 22 45 27 45 10z m3048 -24 c13 -13 50 -34 82
-47 68 -26 79 -42 52 -78 -15 -19 -26 -24 -51 -22 -18 2 -39 -2 -47 -8 -11
-10 -17 -10 -29 0 -10 9 -33 11 -70 7 -31 -3 -57 -1 -61 4 -4 6 -11 6 -20 -2
-11 -9 -19 -8 -35 7 -18 16 -20 26 -15 71 9 79 13 85 41 57 13 -13 35 -24 47
-24 29 0 68 26 68 46 0 20 12 17 38 -11z m-913 -78 c29 -3 52 -12 57 -21 12
-22 74 -49 109 -48 39 1 48 -22 20 -51 -17 -19 -30 -23 -78 -21 -32 0 -65 4
-74 8 -16 7 -95 16 -136 16 -30 0 -48 33 -28 50 8 7 15 18 15 26 0 7 4 24 10
38 8 22 13 24 33 17 13 -5 46 -12 72 -14z"/>
<path d="M2249 2873 c-13 -16 -12 -17 4 -4 9 7 17 15 17 17 0 8 -8 3 -21 -13z"/>
<path d="M1574 2838 c-32 -39 -64 -105 -63 -133 0 -12 8 -3 20 25 11 24 25 48
32 52 7 4 8 8 4 8 -5 0 0 12 11 28 42 61 40 72 -4 20z"/>
<path d="M1832 2825 c-33 -25 -69 -45 -80 -45 -28 0 -52 26 -52 58 -1 22 -2
24 -10 10 -15 -24 4 -64 38 -82 26 -14 31 -13 63 6 43 26 91 66 102 84 13 22
3 17 -61 -31z"/>
<path d="M2147 2806 c-48 -29 -61 -43 -22 -23 31 16 74 46 65 46 -3 0 -22 -10
-43 -23z"/>
<path d="M1458 2743 c7 -3 16 -2 19 1 4 3 -2 6 -13 5 -11 0 -14 -3 -6 -6z"/>
<path d="M1393 2733 c9 -2 23 -2 30 0 6 3 -1 5 -18 5 -16 0 -22 -2 -12 -5z"/>
<path d="M2025 2715 c-16 -13 -27 -27 -24 -29 3 -3 18 8 34 24 35 36 31 38
-10 5z"/>
<path d="M1385 2348 c-10 -24 2 -55 16 -41 6 6 6 18 0 34 -8 21 -10 22 -16 7z"/>
<path d="M1281 2324 c0 -11 3 -14 6 -6 3 7 2 16 -1 19 -3 4 -6 -2 -5 -13z"/>
<path d="M4850 2738 c-11 -12 -20 -31 -20 -43 0 -13 -9 -27 -22 -33 -21 -10
-22 -11 -3 -11 11 -1 26 -5 34 -10 12 -8 12 -13 -3 -36 -15 -23 -16 -31 -6
-50 10 -18 16 -21 29 -14 23 15 69 -5 81 -33 l9 -23 0 22 c1 28 -35 53 -76 53
-35 0 -40 9 -21 39 9 15 9 25 0 46 -19 41 -14 72 14 94 15 12 22 21 16 21 -6
0 -20 -10 -32 -22z"/>
<path d="M2990 2654 c0 -10 5 -26 10 -34 8 -11 9 -7 4 15 -8 37 -14 45 -14 19z"/>
<path d="M3732 2584 c-17 -27 -42 -63 -56 -81 l-27 -31 39 -60 38 -59 11 34
c5 18 6 33 2 33 -5 0 -9 -4 -9 -10 0 -5 -7 -7 -15 -4 -8 4 -15 12 -15 20 0 8
-4 14 -9 14 -20 0 -21 34 -1 54 l20 20 0 -36 c0 -20 4 -39 8 -42 5 -3 6 8 4
24 -6 40 3 69 32 112 14 22 21 41 16 48 -6 10 -17 -1 -38 -36z"/>
<path d="M2291 2532 c-1 -60 3 -91 9 -87 12 7 12 132 0 160 -6 13 -9 -12 -9
-73z"/>
<path d="M2851 2594 c0 -11 3 -14 6 -6 3 7 2 16 -1 19 -3 4 -6 -2 -5 -13z"/>
<path d="M5003 2594 c-7 -7 -13 -19 -13 -26 0 -7 7 -2 16 10 18 26 16 37 -3
16z"/>
<path d="M2230 2498 c0 -57 5 -110 10 -118 7 -10 10 23 10 103 0 71 -4 117
-10 117 -6 0 -10 -41 -10 -102z"/>
<path d="M3000 2585 c0 -9 -19 -25 -42 -35 -34 -16 -37 -18 -13 -13 46 9 65
22 65 43 0 11 -2 20 -5 20 -3 0 -5 -7 -5 -15z"/>
<path d="M3881 2553 c-1 -22 -9 -38 -27 -50 -40 -28 -99 -83 -89 -83 5 0 21
11 35 25 14 14 40 38 58 53 28 22 33 33 29 57 l-4 30 -2 -32z"/>
<path d="M3150 2536 c0 -2 7 -7 16 -10 8 -3 12 -2 9 4 -6 10 -25 14 -25 6z"/>
<path d="M2914 2516 c19 -15 19 -16 -7 -36 -30 -24 -47 -74 -47 -140 l-1 -45
-24 30 c-13 16 -37 57 -52 92 -15 34 -33 63 -39 63 -14 0 -44 -33 -44 -49 0
-26 81 -168 124 -217 l45 -51 -23 -22 c-39 -36 -53 -29 -139 74 -14 17 -28 27
-31 24 -11 -10 30 -94 65 -133 31 -36 31 -37 11 -43 -12 -3 -22 -9 -22 -14 0
-26 54 6 132 78 26 24 52 43 57 43 6 0 4 18 -5 43 -13 39 -12 49 15 157 32
120 31 130 -13 151 -20 10 -20 10 -2 -5z m-10 -150 c-22 -84 -24 -121 -10
-163 8 -25 -1 -29 -24 -10 -49 38 -159 225 -145 246 10 18 23 13 31 -11 10
-35 67 -127 81 -132 18 -7 44 4 37 15 -7 12 16 120 29 136 22 29 23 -2 1 -81z
m-114 -267 c0 -4 -7 -6 -15 -3 -8 4 -15 10 -15 15 0 4 7 6 15 3 8 -4 15 -10
15 -15z"/>
<path d="M3240 2487 c0 -3 17 -17 37 -33 20 -15 33 -23 29 -16 -8 13 -66 56
-66 49z"/>
<path d="M3589 2443 l-24 -28 28 24 c25 23 32 31 24 31 -2 0 -14 -12 -28 -27z"/>
<path d="M4806 2455 c-11 -8 -15 -15 -9 -15 6 0 16 7 23 15 16 19 11 19 -14 0z"/>
<path d="M4758 2433 c7 -3 16 -2 19 1 4 3 -2 6 -13 5 -11 0 -14 -3 -6 -6z"/>
<path d="M3320 2426 c0 -2 8 -10 18 -17 15 -13 16 -12 3 4 -13 16 -21 21 -21
13z"/>
<path d="M2648 2413 c7 -3 16 -2 19 1 4 3 -2 6 -13 5 -11 0 -14 -3 -6 -6z"/>
<path d="M3530 2410 c-9 -6 -10 -10 -3 -10 6 0 15 5 18 10 8 12 4 12 -15 0z"/>
<path d="M4620 2400 c0 -4 16 -20 35 -34 19 -15 35 -25 35 -23 0 2 -16 17 -35
34 -19 17 -35 28 -35 23z"/>
<path d="M3372 2384 c10 -10 20 -16 22 -13 3 3 -5 11 -17 18 -21 13 -21 12 -5
-5z"/>
<path d="M3095 2323 c-21 -27 -56 -67 -78 -89 l-39 -42 13 -63 14 -63 39 42
c22 23 50 45 62 48 13 3 30 17 39 30 21 33 33 30 38 -8 l4 -33 1 30 c2 23 10
35 32 48 41 25 39 57 -6 107 -49 54 -72 52 -119 -7z m107 0 c21 -20 38 -44 38
-52 0 -23 -31 -51 -57 -51 -13 0 -34 -11 -47 -25 -13 -14 -28 -25 -35 -25 -6
0 -27 -16 -45 -35 -19 -19 -37 -35 -39 -35 -3 0 -10 21 -15 46 -10 46 -10 46
37 94 25 27 59 65 74 84 16 20 34 36 40 36 6 0 28 -17 49 -37z"/>
<path d="M4738 2308 c5 -5 16 -8 23 -6 8 3 3 7 -10 11 -17 4 -21 3 -13 -5z"/>
<path d="M4690 2283 c0 -24 101 -45 114 -25 3 5 -15 9 -39 9 -24 0 -51 5 -59
13 -9 7 -16 8 -16 3z"/>
<path d="M3694 2258 l-19 -23 23 19 c12 11 22 21 22 23 0 8 -8 2 -26 -19z"/>
<path d="M3645 2230 c-3 -5 -2 -10 4 -10 5 0 13 5 16 10 3 6 2 10 -4 10 -5 0
-13 -4 -16 -10z"/>
<path d="M3500 2180 c-34 -7 -34 -7 -5 -8 17 0 39 3 50 8 24 10 4 10 -45 0z"/>
<path d="M4172 2146 c-51 -55 -82 -122 -89 -191 -6 -60 28 -172 86 -281 l38
-70 -34 -23 c-27 -17 -32 -25 -23 -36 18 -22 61 -28 78 -11 14 14 14 17 -1 34
-19 20 -23 37 -7 27 13 -8 0 26 -35 90 -50 93 -82 196 -79 262 3 71 37 147 84
187 17 14 30 33 28 42 -2 12 -14 4 -46 -30z"/>
<path d="M3310 2174 c0 -2 9 -8 20 -14 11 -6 20 -7 20 -2 0 6 -9 12 -20 15
-11 3 -20 3 -20 1z"/>
<path d="M3438 2163 c7 -3 16 -2 19 1 4 3 -2 6 -13 5 -11 0 -14 -3 -6 -6z"/>
<path d="M2511 2134 c0 -11 3 -14 6 -6 3 7 2 16 -1 19 -3 4 -6 -2 -5 -13z"/>
<path d="M3191 2124 c0 -11 3 -14 6 -6 3 7 2 16 -1 19 -3 4 -6 -2 -5 -13z"/>
<path d="M3876 2086 c10 -8 21 -12 24 -10 5 6 -21 24 -34 24 -6 0 -1 -6 10
-14z"/>
<path d="M4239 2058 c-20 -35 -24 -56 -24 -118 1 -71 4 -83 69 -225 37 -82 77
-172 87 -198 l19 -48 -57 -72 c-31 -40 -59 -76 -64 -80 -11 -14 -49 3 -49 21
1 9 21 37 45 62 25 25 45 51 45 58 0 18 -26 66 -44 81 -23 20 -19 -1 8 -41
l24 -36 -59 -65 -59 -65 34 -26 c19 -14 39 -26 45 -26 11 0 131 156 131 171 0
5 6 9 14 9 18 0 -3 53 -93 246 -81 173 -91 222 -64 300 11 33 23 67 27 77 16
35 -11 16 -35 -25z"/>
<path d="M3141 1996 c-30 -30 -80 -69 -112 -86 -56 -30 -168 -70 -195 -70 -17
0 -18 -14 -3 -41 10 -19 37 -20 102 -2 15 4 14 0 -5 -34 -22 -36 -23 -47 -21
-208 2 -93 7 -183 11 -200 8 -29 10 -30 75 -33 53 -2 67 0 67 12 0 8 -9 74
-20 148 -11 73 -20 168 -20 210 0 68 3 80 26 107 14 17 31 31 38 31 7 0 68
-56 136 -124 119 -121 123 -124 146 -110 12 9 29 26 38 38 14 23 12 26 -84
112 -55 49 -122 101 -150 116 -40 21 -46 28 -31 33 21 6 111 99 111 113 0 8
-43 42 -52 42 -2 0 -28 -25 -57 -54z m79 10 c0 -8 -27 -38 -61 -68 -69 -59
-72 -47 32 -116 31 -20 89 -67 128 -103 70 -66 70 -67 52 -88 -10 -11 -21 -21
-24 -21 -3 0 -58 54 -123 120 -64 66 -123 120 -130 120 -28 0 -61 -23 -78 -54
-24 -46 -23 -186 3 -317 20 -103 21 -139 3 -140 -29 -3 -76 1 -81 6 -9 9 -19
177 -16 280 1 71 7 109 19 131 26 49 14 64 -45 57 -60 -7 -64 2 -6 17 103 27
172 66 257 147 45 44 70 54 70 29z"/>
<path d="M3625 2035 c-25 -12 -26 -14 -5 -9 28 7 60 23 45 23 -5 0 -23 -6 -40
-14z"/>
<path d="M3540 2010 c-11 -8 -7 -9 15 -4 37 8 45 14 19 14 -10 0 -26 -5 -34
-10z"/>
<path d="M3378 1993 c7 -3 16 -2 19 1 4 3 -2 6 -13 5 -11 0 -14 -3 -6 -6z"/>
<path d="M3458 1993 c7 -3 16 -2 19 1 4 3 -2 6 -13 5 -11 0 -14 -3 -6 -6z"/>
<path d="M2590 1936 c0 -2 8 -10 18 -17 15 -13 16 -12 3 4 -13 16 -21 21 -21
13z"/>
<path d="M3925 1929 c-4 -6 -5 -12 -2 -15 2 -3 7 2 10 11 7 17 1 20 -8 4z"/>
<path d="M3762 1881 c-34 -27 -84 -62 -112 -77 -33 -18 -47 -31 -41 -37 13
-13 86 15 139 54 39 28 90 95 80 105 -3 2 -32 -18 -66 -45z"/>
<path d="M4470 1805 c0 -36 11 -118 24 -182 41 -197 41 -200 14 -214 -12 -7
-31 -24 -42 -38 -39 -52 -116 -121 -135 -121 -32 0 -32 15 -2 46 31 33 84 110
94 137 11 29 -7 19 -27 -15 -11 -17 -44 -60 -73 -95 -52 -61 -54 -65 -36 -78
37 -29 52 -27 95 9 44 36 50 42 106 112 l33 41 99 -36 c78 -28 100 -41 105
-58 6 -25 23 -25 125 5 66 19 46 26 -36 13 -35 -5 -66 -5 -76 0 -19 10 -33 83
-25 131 6 32 4 35 -72 82 -43 27 -94 62 -112 77 l-34 27 0 111 c0 82 -3 111
-12 111 -9 0 -13 -20 -13 -65z m168 -293 c51 -34 52 -36 52 -83 0 -27 -2 -49
-5 -49 -9 0 -120 43 -127 49 -3 3 -9 26 -13 51 -3 25 -8 58 -12 74 l-5 30 28
-19 c16 -10 53 -34 82 -53z"/>
<path d="M2768 1853 c7 -3 16 -2 19 1 4 3 -2 6 -13 5 -11 0 -14 -3 -6 -6z"/>
<path d="M3865 1799 c-4 -6 -5 -12 -2 -15 2 -3 7 2 10 11 7 17 1 20 -8 4z"/>
<path d="M3578 1763 c10 -4 8 -12 -10 -32 l-23 -26 27 24 c27 23 29 42 5 40
-8 0 -8 -2 1 -6z"/>
<path d="M3505 1740 c-3 -6 1 -7 9 -4 18 7 21 14 7 14 -6 0 -13 -4 -16 -10z"/>
<path d="M3836 1733 c-6 -14 -5 -15 5 -6 7 7 10 15 7 18 -3 3 -9 -2 -12 -12z"/>
<path d="M3450 1724 c-33 -13 -33 -14 -5 -8 17 3 34 10 40 15 11 11 8 11 -35
-7z"/>
<path d="M2851 1714 c0 -11 3 -14 6 -6 3 7 2 16 -1 19 -3 4 -6 -2 -5 -13z"/>
<path d="M2015 1660 c-8 -13 36 -50 88 -75 24 -11 44 -28 46 -39 2 -11 25 -46
51 -78 59 -70 122 -175 118 -196 -5 -26 -35 -39 -59 -24 -31 20 -34 8 -5 -16
15 -11 26 -30 26 -42 0 -12 14 -41 31 -65 18 -25 33 -60 36 -86 7 -57 19 -79
43 -79 35 0 50 38 50 124 0 47 7 101 17 133 21 65 14 74 -68 92 -65 14 -88 34
-149 136 -23 39 -56 85 -74 103 -47 51 -144 123 -151 112z m355 -387 c0 -34
-26 -63 -57 -63 -28 0 -30 16 -3 25 13 4 23 18 27 36 7 37 33 39 33 2z m57 -1
c7 -5 10 -18 7 -32 -18 -76 -21 -104 -17 -140 5 -42 -13 -113 -27 -105 -5 3
-13 29 -20 57 -6 29 -22 67 -35 84 -14 18 -25 35 -25 38 0 3 14 13 31 21 17 9
37 31 45 51 15 35 21 39 41 26z"/>
<path d="M3580 1635 c-7 -14 -33 -37 -57 -50 -26 -16 -43 -33 -43 -45 0 -10
13 -47 30 -82 16 -34 30 -78 30 -97 0 -24 9 -42 34 -67 54 -54 83 -41 65 27
l-9 34 5 -37 c4 -44 -6 -55 -30 -32 -21 22 -30 47 -40 108 -3 27 -10 44 -14
38 -4 -7 -18 10 -34 43 -23 46 -25 59 -15 75 13 21 37 34 46 25 3 -3 0 -11 -6
-17 -7 -7 -12 -16 -12 -21 0 -5 22 18 48 51 l49 61 30 -19 c33 -20 50 -40 34
-40 -6 0 -22 -17 -36 -37 -19 -29 -25 -49 -24 -88 l2 -50 6 58 c6 51 11 63 43
92 40 37 39 39 -24 78 -38 24 -62 21 -78 -8z m-6 -40 c-4 -8 -11 -15 -16 -15
-6 0 -5 6 2 15 7 8 14 15 16 15 2 0 1 -7 -2 -15z m-17 -237 c-3 -7 -5 -2 -5
12 0 14 2 19 5 13 2 -7 2 -19 0 -25z"/>
<path d="M1780 1622 c0 -22 4 -32 12 -30 18 6 20 22 3 43 -14 19 -14 18 -15
-13z"/>
<path d="M2843 1595 c-11 -33 -24 -67 -28 -76 -5 -12 2 -19 26 -28 18 -6 34
-11 35 -11 6 0 2 113 -5 145 -7 29 -8 28 -28 -30z"/>
<path d="M1835 1580 c3 -5 27 -24 53 -41 26 -17 36 -21 22 -9 -61 53 -70 60
-76 60 -3 0 -2 -4 1 -10z"/>
<path d="M3285 1579 c-4 -6 -5 -12 -2 -15 2 -3 7 2 10 11 7 17 1 20 -8 4z"/>
<path d="M3266 1533 c-6 -14 -5 -15 5 -6 7 7 10 15 7 18 -3 3 -9 -2 -12 -12z"/>
<path d="M1943 1504 c5 -5 44 -36 87 -69 43 -33 107 -84 142 -114 l63 -53 -57
55 c-67 65 -275 226 -235 181z"/>
<path d="M3255 1499 c-4 -6 -5 -12 -2 -15 2 -3 7 2 10 11 7 17 1 20 -8 4z"/>
<path d="M1610 1436 c0 -11 70 -126 76 -126 6 0 -10 30 -47 88 -16 25 -29 42
-29 38z"/>
<path d="M3216 1339 c-8 -42 0 -50 9 -9 4 17 5 34 2 36 -2 3 -7 -10 -11 -27z"/>
<path d="M2891 1324 c0 -11 3 -14 6 -6 3 7 2 16 -1 19 -3 4 -6 -2 -5 -13z"/>
<path d="M4142 1320 c-18 -29 -15 -38 4 -12 9 13 14 25 12 27 -2 2 -9 -5 -16
-15z"/>
<path d="M1732 1215 c23 -46 44 -83 46 -81 4 5 -76 166 -83 166 -3 0 14 -38
37 -85z"/>
<path d="M2902 1255 c0 -16 2 -22 5 -12 2 9 2 23 0 30 -3 6 -5 -1 -5 -18z"/>
<path d="M4738 1233 c5 -21 7 -23 10 -9 2 10 0 22 -6 28 -6 6 -7 0 -4 -19z"/>
<path d="M3201 1234 c0 -11 3 -14 6 -6 3 7 2 16 -1 19 -3 4 -6 -2 -5 -13z"/>
<path d="M2912 1200 c0 -14 2 -19 5 -12 2 6 2 18 0 25 -3 6 -5 1 -5 -13z"/>
<path d="M3190 1191 c0 -6 4 -13 10 -16 6 -3 7 1 4 9 -7 18 -14 21 -14 7z"/>
<path d="M4075 1189 c-4 -6 -5 -12 -2 -15 2 -3 7 2 10 11 7 17 1 20 -8 4z"/>
<path d="M4942 1180 c0 -14 2 -19 5 -12 2 6 2 18 0 25 -3 6 -5 1 -5 -13z"/>
<path d="M4284 1133 c-15 -20 -23 -33 -16 -29 13 8 56 66 49 66 -3 0 -17 -17
-33 -37z"/>
<path d="M2921 1124 c0 -11 3 -14 6 -6 3 7 2 16 -1 19 -3 4 -6 -2 -5 -13z"/>
<path d="M4790 1125 c0 -5 5 -17 10 -25 5 -8 10 -10 10 -5 0 6 -5 17 -10 25
-5 8 -10 11 -10 5z"/>
<path d="M1780 1115 c0 -5 5 -17 10 -25 5 -8 10 -10 10 -5 0 6 -5 17 -10 25
-5 8 -10 11 -10 5z"/>
<path d="M4029 1084 c-5 -15 -8 -29 -5 -31 2 -2 8 10 14 26 13 38 5 41 -9 5z"/>
<path d="M4235 1080 c-3 -5 -2 -10 4 -10 5 0 13 5 16 10 3 6 2 10 -4 10 -5 0
-13 -4 -16 -10z"/>
<path d="M2931 1044 c0 -11 3 -14 6 -6 3 7 2 16 -1 19 -3 4 -6 -2 -5 -13z"/>
<path d="M4191 1025 c-17 -20 -31 -39 -31 -42 0 -4 3 -3 8 3 4 5 20 24 36 42
17 17 27 32 24 32 -3 0 -20 -16 -37 -35z"/>
<path d="M3197 1023 c-4 -3 -7 -11 -7 -17 0 -6 5 -5 12 2 6 6 9 14 7 17 -3 3
-9 2 -12 -2z"/>
<path d="M2952 960 c0 -14 2 -19 5 -12 2 6 2 18 0 25 -3 6 -5 1 -5 -13z"/>
<path d="M3201 944 c0 -11 3 -14 6 -6 3 7 2 16 -1 19 -3 4 -6 -2 -5 -13z"/>
<path d="M2958 905 c2 -14 6 -25 8 -25 2 0 4 11 4 25 0 14 -4 25 -9 25 -4 0
-6 -11 -3 -25z"/>
<path d="M2972 855 c0 -11 4 -31 8 -45 6 -20 8 -21 8 -5 0 11 -4 31 -8 45 -6
20 -8 21 -8 5z"/>
<path d="M3211 844 c0 -11 3 -14 6 -6 3 7 2 16 -1 19 -3 4 -6 -2 -5 -13z"/>
<path d="M3222 795 c0 -16 2 -22 5 -12 2 9 2 23 0 30 -3 6 -5 -1 -5 -18z"/>
<path d="M2992 760 c0 -14 2 -19 5 -12 2 6 2 18 0 25 -3 6 -5 1 -5 -13z"/>
<path d="M2995 720 c-3 -5 -1 -10 4 -10 6 0 11 5 11 10 0 6 -2 10 -4 10 -3 0
-8 -4 -11 -10z"/>
<path d="M3125 660 l-30 -8 30 0 c17 0 39 3 50 8 l20 9 -20 -1 c-11 0 -33 -4
-50 -8z"/>
<path d="M3161 487 c-13 -21 -12 -21 5 -5 10 10 16 20 13 22 -3 3 -11 -5 -18
-17z"/>
<path d="M2978 423 c7 -3 16 -2 19 1 4 3 -2 6 -13 5 -11 0 -14 -3 -6 -6z"/>
<path d="M4967 3309 c-68 -36 -83 -114 -36 -181 73 -102 219 -48 219 82 0 52
-11 73 -54 99 -42 26 -80 26 -129 0z m116 -9 c5 -4 4 -17 -2 -29 -6 -11 -11
-43 -10 -72 2 -52 -8 -69 -42 -69 -27 0 -38 23 -37 80 0 30 -1 64 -3 74 -6 31
65 43 94 16z m-108 -31 c4 -11 4 -42 0 -68 -8 -56 9 -81 55 -81 45 0 62 25 56
79 -4 30 -1 54 8 70 l14 25 16 -32 c21 -41 20 -80 -4 -119 -43 -72 -150 -62
-190 17 -20 39 -18 68 8 108 18 27 29 28 37 1z"/>
<path d="M2043 3125 c0 -14 3 -27 7 -30 4 -2 6 7 4 21 -3 35 -11 41 -11 9z"/>
<path d="M2049 3078 c-5 -18 -6 -38 -1 -34 7 8 12 36 6 36 -2 0 -4 -1 -5 -2z"/>
</g>
</svg>
